<svg xmlns="http://www.w3.org/2000/svg" viewBox="0 0 100 100">
  <rect width="100" height="100" rx="10" fill="#0a0a0a"/>
  <!-- Simplified pixel creature for favicon -->
  <g fill="#00ff41">
    <!-- Antennae -->
    <rect x="30" y="18" width="6" height="6" rx="1"/>
    <rect x="64" y="18" width="6" height="6" rx="1"/>
    <!-- Head -->
    <rect x="36" y="24" width="28" height="6" rx="1"/>
    <rect x="30" y="30" width="40" height="6" rx="1"/>
    <!-- Eyes row -->
    <rect x="24" y="36" width="12" height="6" rx="1"/>
    <rect x="46" y="36" width="8" height="6" rx="1"/>
    <rect x="64" y="36" width="12" height="6" rx="1"/>
    <!-- Body -->
    <rect x="24" y="42" width="52" height="6" rx="1"/>
    <rect x="24" y="48" width="52" height="6" rx="1"/>
    <rect x="24" y="54" width="52" height="6" rx="1"/>
    <rect x="30" y="60" width="40" height="6" rx="1"/>
    <!-- Feet -->
    <rect x="30" y="66" width="12" height="6" rx="1"/>
    <rect x="58" y="66" width="12" height="6" rx="1"/>
    <rect x="24" y="72" width="12" height="6" rx="1"/>
    <rect x="64" y="72" width="12" height="6" rx="1"/>
  </g>
  <!-- Eyes -->
  <g fill="#0a0a0a">
    <rect x="36" y="36" width="10" height="6" rx="1"/>
    <rect x="54" y="36" width="10" height="6" rx="1"/>
  </g>
</svg>
